<?xml version="1.0" encoding="utf-8"?>
<!-- Generator: Adobe Illustrator 19.2.1, SVG Export Plug-In . SVG Version: 6.00 Build 0)  -->
<svg version="1.1" id="Layer_1" xmlns="http://www.w3.org/2000/svg" xmlns:xlink="http://www.w3.org/1999/xlink" x="0px" y="0px"
	 viewBox="0 0 184.7 42.4" style="enable-background:new 0 0 184.7 42.4;" xml:space="preserve">
<style type="text/css">
	.st0{fill:#FFFFFF;}
</style>
<title>LMS-logo</title>
<path class="st0" d="M28.1,21.8h-7.4V10.6l0,0c0-0.1,0-0.2,0-0.3c0.2-5.7-4.3-10.4-10-10.6S0.2,4,0,9.7c0,0.2,0,0.4,0,0.6
	c0,0.2,0,0.5,0,0.7v31.3h28c5.7,0,10.3-4.6,10.3-10.3C38.3,26.4,33.7,21.8,28.1,21.8C28,21.8,28,21.8,28.1,21.8"/>
<polygon class="st0" points="45.5,0.5 48.5,0.5 48.5,14.5 57.3,14.5 57.3,17.2 45.5,17.2 "/>
<path class="st0" d="M66.3,0.3H69l7.3,16.9h-3.1l-1.7-4h-7.9l-1.7,4h-3L66.3,0.3z M70.5,10.6l-2.9-6.7l-2.9,6.7L70.5,10.6L70.5,10.6
	z"/>
<polygon class="st0" points="78.7,0.5 81.5,0.5 90.4,12 90.4,0.5 93.3,0.5 93.3,17.2 90.9,17.2 81.6,5.3 81.6,17.2 78.7,17.2 "/>
<path class="st0" d="M97.2,0.5h6.2c5.3,0,8.9,3.6,8.9,8.3l0,0c0,4.7-3.6,8.4-8.9,8.4h-6.2V0.5z M103.4,14.5c3,0.2,5.6-2.1,5.8-5.1
	c0-0.2,0-0.4,0-0.6l0,0c0.1-3-2.2-5.6-5.3-5.7c-0.2,0-0.4,0-0.5,0h-3.3v11.3C100.1,14.5,103.4,14.5,103.4,14.5z"/>
<polygon class="st0" points="114.4,0.5 117.6,0.5 122.6,8.4 127.7,0.5 130.9,0.5 130.9,17.2 127.9,17.2 127.9,5.2 122.6,13.1 
	122.5,13.1 117.3,5.2 117.3,17.2 114.4,17.2 "/>
<path class="st0" d="M140.6,0.3h2.7l7.4,16.9h-3.1l-1.7-4H138l-1.7,4h-3L140.6,0.3z M144.8,10.6l-2.9-6.7l-2.9,6.7H144.8z"/>
<path class="st0" d="M153.1,0.5h7.5c1.8-0.1,3.5,0.5,4.8,1.7c0.9,1,1.4,2.3,1.4,3.6l0,0c0.1,2.4-1.6,4.6-4,5.1l4.5,6.3h-3.5
	l-4.1-5.8H156v5.9h-2.9V0.5z M160.4,8.8c2.1,0,3.4-1.1,3.4-2.8l0,0c0-1.8-1.3-2.8-3.5-2.8H156v5.6H160.4L160.4,8.8z"/>
<polygon class="st0" points="169.9,0.5 172.9,0.5 172.9,8.9 180.8,0.5 184.4,0.5 177.5,7.7 184.7,17.2 181.2,17.2 175.4,9.7 
	172.9,12.4 172.9,17.2 169.9,17.2 "/>
<path class="st0" d="M44.4,39.1l1.8-2.1c1.4,1.4,3.3,2.1,5.3,2.2c1.8,0,3-0.8,3-2.1l0,0c0-1.2-0.7-1.8-3.8-2.6
	c-3.6-0.9-5.6-1.9-5.6-5l0,0c0-2.9,2.4-4.9,5.7-4.9c2.2,0,4.4,0.7,6.1,2.1L55.3,29c-1.3-1.1-2.9-1.7-4.5-1.7c-1.7,0-2.7,0.9-2.7,2
	l0,0c0,1.3,0.8,1.9,4,2.6c3.5,0.9,5.4,2.1,5.4,4.9l0,0c0,3.1-2.5,5-6,5C48.9,41.8,46.4,40.9,44.4,39.1"/>
<polygon class="st0" points="59.9,24.8 62.8,24.8 62.8,31.8 70.8,31.8 70.8,24.8 73.8,24.8 73.8,41.5 70.8,41.5 70.8,34.5 
	62.8,34.5 62.8,41.5 59.9,41.5 "/>
<path class="st0" d="M76.3,33.2L76.3,33.2c0-4.8,3.9-8.8,8.8-8.8s8.8,3.9,8.8,8.8l0,0c0,4.8-3.9,8.8-8.8,8.8S76.3,38.1,76.3,33.2
	 M90.8,33.2L90.8,33.2c0.1-3.2-2.3-5.8-5.5-6c-0.1,0-0.2,0-0.2,0c-3.1,0-5.7,2.5-5.6,5.7c0,0.1,0,0.2,0,0.2l0,0
	c-0.1,3.2,2.3,5.9,5.5,6c0.1,0,0.1,0,0.2,0c3.1,0,5.7-2.5,5.6-5.7C90.8,33.4,90.8,33.3,90.8,33.2"/>
<path class="st0" d="M96.5,24.8h6.6c3.9,0,6.4,2.2,6.4,5.6l0,0c0,3.8-3,5.7-6.7,5.7h-3.3v5.4h-2.9V24.8z M102.8,33.5
	c2.2,0,3.6-1.2,3.6-3l0,0c0-2-1.4-3-3.6-3h-3.4v6H102.8z"/>
<path class="st0" d="M110.8,39.1l1.8-2.1c1.4,1.4,3.3,2.1,5.3,2.2c1.8,0,3-0.8,3-2.1l0,0c0-1.2-0.7-1.8-3.8-2.6
	c-3.6-0.9-5.6-1.9-5.6-5l0,0c0-2.9,2.4-4.9,5.7-4.9c2.2,0,4.4,0.7,6.1,2.1l-1.6,2.2c-1.3-1.1-2.9-1.7-4.5-1.7c-1.7,0-2.7,0.9-2.7,2
	l0,0c0,1.3,0.8,1.9,4,2.6c3.5,0.9,5.4,2.1,5.4,4.9l0,0c0,3.1-2.5,5-6,5C115.3,41.8,112.8,40.8,110.8,39.1"/>
<rect x="126.2" y="38.3" class="st0" width="3.2" height="3.3"/>
<path class="st0" d="M131,33.2L131,33.2c-0.1-4.7,3.6-8.6,8.3-8.7c0.1,0,0.2,0,0.4,0c2.5-0.1,4.8,0.9,6.6,2.6l-1.9,2.2
	c-1.2-1.3-2.9-2-4.7-2.1c-3.1,0.1-5.6,2.6-5.5,5.7c0,0.1,0,0.1,0,0.2l0,0c-0.2,3.1,2.2,5.8,5.3,6c0.1,0,0.1,0,0.2,0
	c1.8,0,3.6-0.8,4.8-2.2l1.9,1.9c-1.7,2-4.2,3.1-6.8,3c-4.6,0.1-8.5-3.7-8.5-8.3C131,33.5,131,33.3,131,33.2"/>
<path class="st0" d="M147.7,33.2L147.7,33.2c0-4.8,3.9-8.8,8.8-8.8s8.8,3.9,8.8,8.8l0,0c0,4.8-3.9,8.8-8.8,8.8
	S147.7,38.1,147.7,33.2 M162.1,33.2L162.1,33.2c0.1-3.2-2.3-5.9-5.5-6c-0.1,0-0.1,0-0.2,0c-3.1,0-5.6,2.5-5.6,5.7c0,0.1,0,0.2,0,0.2
	l0,0c-0.1,3.2,2.3,5.9,5.5,6c0.1,0,0.1,0,0.2,0c3.1,0,5.6-2.5,5.6-5.7C162.1,33.4,162.1,33.3,162.1,33.2"/>
<polygon class="st0" points="167.8,24.8 171,24.8 176.1,32.7 181.1,24.8 184.3,24.8 184.3,41.5 181.3,41.5 181.3,29.5 176.1,37.4 
	176,37.4 170.7,29.6 170.7,41.5 167.8,41.5 "/>
</svg>
