<svg id="Layer_1" data-name="Layer 1" xmlns="http://www.w3.org/2000/svg" viewBox="0 0 184.73 42.38"><defs><style>.cls-1{fill:#231f20;}</style></defs><title>LMS-logo</title><path class="cls-1" d="M28.06,21.78H20.61V10.65h0c0-.11,0-0.23,0-0.34A10.31,10.31,0,1,0,0,10.31c0,0.25,0,.5,0,0.74V42.36h28a10.3,10.3,0,1,0,0-20.6"/><polygon class="cls-1" points="45.53 0.47 48.47 0.47 48.47 14.53 57.27 14.53 57.27 17.2 45.53 17.2 45.53 0.47"/><path class="cls-1" d="M66.26,0.35H69L76.35,17.2H73.24l-1.7-4H63.63l-1.72,4h-3Zm4.21,10.21L67.58,3.86l-2.87,6.69h5.76Z"/><polygon class="cls-1" points="78.74 0.47 81.47 0.47 90.43 12.04 90.43 0.47 93.33 0.47 93.33 17.2 90.86 17.2 81.63 5.3 81.63 17.2 78.74 17.2 78.74 0.47"/><path class="cls-1" d="M97.15,0.47h6.24c5.26,0,8.89,3.61,8.89,8.32v0c0,4.71-3.63,8.37-8.89,8.37H97.15V0.47Zm6.24,14.06a5.45,5.45,0,0,0,5.81-5.64v0a5.49,5.49,0,0,0-5.81-5.69h-3.3V14.53h3.3Z"/><polygon class="cls-1" points="114.42 0.47 117.55 0.47 122.64 8.38 127.73 0.47 130.87 0.47 130.87 17.2 127.92 17.2 127.92 5.2 122.64 13.09 122.54 13.09 117.31 5.25 117.31 17.2 114.42 17.2 114.42 0.47"/><path class="cls-1" d="M140.62,0.35h2.73l7.37,16.85H147.6l-1.7-4H138l-1.72,4h-3Zm4.21,10.21-2.89-6.69-2.87,6.69h5.76Z"/><path class="cls-1" d="M153.1,0.47h7.46a6.73,6.73,0,0,1,4.83,1.67,5.06,5.06,0,0,1,1.39,3.61v0a5,5,0,0,1-4,5.07l4.52,6.34h-3.46l-4.11-5.83H156V17.2H153.1V0.47Zm7.25,8.29c2.1,0,3.44-1.1,3.44-2.8v0c0-1.79-1.29-2.77-3.46-2.77H156V8.76h4.3Z"/><polygon class="cls-1" points="169.91 0.47 172.85 0.47 172.85 8.88 180.81 0.47 184.42 0.47 177.46 7.66 184.73 17.2 181.17 17.2 175.45 9.67 172.85 12.35 172.85 17.2 169.91 17.2 169.91 0.47"/><path class="cls-1" d="M44.41,39.1L46.18,37a7.71,7.71,0,0,0,5.28,2.17c1.82,0,3-.84,3-2.11v0c0-1.2-.67-1.84-3.78-2.56-3.56-.86-5.57-1.91-5.57-5v0c0-2.87,2.39-4.85,5.72-4.85a9.28,9.28,0,0,1,6.07,2.1l-1.58,2.23a7.59,7.59,0,0,0-4.54-1.72c-1.72,0-2.72.88-2.72,2v0c0,1.29.77,1.87,4,2.63,3.54,0.86,5.38,2.13,5.38,4.9v0c0,3.13-2.46,5-6,5a10.29,10.29,0,0,1-7-2.68"/><polygon class="cls-1" points="59.88 24.8 62.82 24.8 62.82 31.76 70.8 31.76 70.8 24.8 73.75 24.8 73.75 41.54 70.8 41.54 70.8 34.48 62.82 34.48 62.82 41.54 59.88 41.54 59.88 24.8"/><path class="cls-1" d="M76.35,33.22v0a8.75,8.75,0,0,1,17.5,0v0a8.75,8.75,0,0,1-17.5,0m14.42,0v0a5.73,5.73,0,0,0-5.69-6,5.66,5.66,0,0,0-5.64,5.9v0a5.74,5.74,0,0,0,5.69,6,5.66,5.66,0,0,0,5.64-5.91"/><path class="cls-1" d="M96.46,24.8h6.6c3.9,0,6.36,2.22,6.36,5.59v0c0,3.76-3,5.72-6.69,5.72H99.4v5.38H96.46V24.8Zm6.36,8.7c2.22,0,3.61-1.24,3.61-3v0c0-2-1.41-3-3.61-3H99.4v6h3.42Z"/><path class="cls-1" d="M110.83,39.1L112.6,37a7.72,7.72,0,0,0,5.28,2.17c1.82,0,3-.84,3-2.11v0c0-1.2-.67-1.84-3.78-2.56-3.56-.86-5.57-1.91-5.57-5v0c0-2.87,2.39-4.85,5.71-4.85a9.28,9.28,0,0,1,6.07,2.1l-1.58,2.23a7.58,7.58,0,0,0-4.54-1.72c-1.72,0-2.72.88-2.72,2v0c0,1.29.76,1.87,4,2.63,3.54,0.86,5.38,2.13,5.38,4.9v0c0,3.13-2.46,5-6,5a10.31,10.31,0,0,1-7-2.68"/><rect class="cls-1" x="126.25" y="38.26" width="3.18" height="3.28"/><path class="cls-1" d="M131,33.22v0a8.47,8.47,0,0,1,8.63-8.66,8.71,8.71,0,0,1,6.55,2.61l-1.89,2.17a6.67,6.67,0,0,0-4.69-2.08,5.62,5.62,0,0,0-5.52,5.9v0a5.66,5.66,0,0,0,5.52,6,6.55,6.55,0,0,0,4.81-2.18l1.89,1.91a8.63,8.63,0,0,1-6.79,3A8.41,8.41,0,0,1,131,33.22"/><path class="cls-1" d="M147.72,33.22v0a8.75,8.75,0,0,1,17.5,0v0a8.75,8.75,0,0,1-17.5,0m14.42,0v0a5.74,5.74,0,0,0-5.69-6,5.65,5.65,0,0,0-5.64,5.9v0a5.74,5.74,0,0,0,5.69,6,5.65,5.65,0,0,0,5.64-5.91"/><polygon class="cls-1" points="167.83 24.8 170.96 24.8 176.05 32.71 181.15 24.8 184.28 24.8 184.28 41.54 181.34 41.54 181.34 29.53 176.05 37.42 175.96 37.42 170.72 29.58 170.72 41.54 167.83 41.54 167.83 24.8"/></svg>